<?xml version="1.0" encoding="UTF-8"?>
<svg id="_图层_1" data-name="图层_1" xmlns="http://www.w3.org/2000/svg" version="1.1" viewBox="0 0 16 16">
  <!-- Generator: Adobe Illustrator 29.3.1, SVG Export Plug-In . SVG Version: 2.1.0 Build 151)  -->
  <defs>
    <style>
      .st0 {
        fill: none;
      }
    </style>
  </defs>
  <path id="svg_1" d="M10.125,11.188h1.062l-2.656-6.375h-1.062l-2.656,6.375h1.062l.659-1.594h2.938l.653,1.594ZM6.975,8.531l.967-2.348h.133l.988,2.348h-2.088Z"/>
  <path id="svg_2" d="M5.875,14.375h-3.188c-.587,0-1.062-.476-1.062-1.062V2.688c0-.587.476-1.062,1.062-1.062h10.625c.587,0,1.062.476,1.062,1.062v5.844h-1.062V2.688H2.688v10.625h3.188v1.062ZM11.719,13.939l-1.376-1.376-.749.749,2.125,2.125,3.719-3.719-.749-.749-2.97,2.97Z"/>
  <path id="svg_3" class="st0" d="M-.5-.5h17v17H-.5V-.5Z"/>
</svg>