<svg width="16" height="16" xmlns="http://www.w3.org/2000/svg" fill="context-fill" fill-opacity="context-fill-opacity">
  <path id="svg_1" class="st0" d="M15,12.812c0,1.208-.979,2.188-2.187,2.188h-7.875c-1.208,0-2.188-.979-2.188-2.187v-3.587c.277.142.57.257.875.344v3.244c0,.725.588,1.312,1.313,1.312h7.875c.725,0,1.312-.588,1.312-1.313v-7.875c0-.725-.588-1.312-1.313-1.312h-3.244c-.086-.305-.202-.598-.344-.875h3.587c1.208,0,2.188.979,2.188,2.187,0,0,0,7.875,0,7.875ZM1,4.938c0-2.175,1.763-3.938,3.937-3.938s3.938,1.763,3.938,3.937-1.763,3.938-3.937,3.938S1,7.112,1,4.938ZM4.5,6.688c0,.242.196.437.438.437s.437-.196.437-.438v-1.312s1.312,0,1.312,0c.242,0,.437-.196.437-.438s-.196-.437-.438-.437h-1.312s0-1.312,0-1.312c0-.242-.196-.437-.438-.437s-.437.196-.437.438v1.312s-1.312,0-1.312,0c-.242,0-.437.196-.437.438s.196.437.438.437h1.312s0,1.312,0,1.312Z"/>
</svg>
