<?xml version="1.0" encoding="UTF-8"?>
<svg id="_图层_1" data-name="图层_1" xmlns="http://www.w3.org/2000/svg" version="1.1" viewBox="0 0 16 16">
  <!-- Generator: Adobe Illustrator 29.3.1, SVG Export Plug-In . SVG Version: 2.1.0 Build 151)  -->
  <path d="M9.4952,1.0089c-.1748.0263-.3373.1057-.4655.2275l-3.3887,3.1457c-.0809.075-.1872.1166-.2975.1164h-2.281c-.7248,0-1.3124.5876-1.3124,1.3125h0v4.3778c0,.7249.5876,1.3125,1.3124,1.3125h2.281c.1111,0,.217.042.2975.1173l3.3887,3.1457c.56.5198,1.4699.1234,1.4699-.6405V1.877c0-.5731-.5127-.9398-1.0045-.868ZM9.6247,1.877v12.2469l-3.3887-3.1466c-.2426-.2253-.5614-.3503-.8925-.35h-2.281c-.2416,0-.4375-.1959-.4375-.4375v-4.3786c0-.2416.1959-.4375.4375-.4375h2.281c.3311-.0002.6499-.1255.8925-.3509l3.3887-3.1457ZM11.8121,5.8128c-.2416-.0004-.4378.1951-.4383.4367-.0002.1165.0461.2283.1285.3105l1.4411,1.4403-1.4411,1.4412c-.1711.1711-.1711.4484,0,.6195s.4484.1711.6195,0l1.4402-1.442,1.4402,1.442c.1711.1711.4484.1711.6195,0s.1711-.4484,0-.6195l-1.4411-1.4412,1.4411-1.4412c.1711-.1711.1711-.4484,0-.6195s-.4484-.1711-.6195,0l-1.4402,1.442-1.4402-1.442c-.0822-.0818-.1937-.1275-.3097-.1269Z"/>
</svg>