<?xml version="1.0" encoding="UTF-8"?>
<svg id="_图层_1" data-name="图层_1" xmlns="http://www.w3.org/2000/svg" version="1.1" xmlns:xlink="http://www.w3.org/1999/xlink" viewBox="0 0 16 16">
  <!-- Generator: Adobe Illustrator 29.3.1, SVG Export Plug-In . SVG Version: 2.1.0 Build 151)  -->
  <defs>
    <style>
      .st0 {
        fill: none;
      }

      .st1 {
        clip-path: url(#clippath);
      }
    </style>
    <clipPath id="clippath">
      <path class="st0" d="M3.588,1l12.162,12.1619V1H3.588ZM1.75,1.6121v13.3879h13.387L1.75,1.6121Z"/>
    </clipPath>
  </defs>
  <g class="st1">
    <path d="M10.369,1.0097c-.174.027-.336.106-.464.227l-3.39,3.146c-.081.075-.187.117-.297.116h-2.28c-.725,0-1.312.588-1.312,1.312h0v4.378c0,.725.588,1.312,1.312,1.312h2.281c.11,0,.217.042.297.117l3.388,3.146c.56.52,1.47.123,1.47-.64V1.8777c0-.573-.513-.94-1.005-.868ZM10.5,1.8777v12.246l-3.389-3.146c-.243-.225-.561-.35-.892-.35h-2.281c-.242,0-.437-.196-.437-.437v-4.378c0-.242.196-.437.437-.437h2.281c.331,0,.649-.125.892-.351l3.389-3.146h0v-.001Z"/>
  </g>
  <path d="M2.1882,1.001c-.116,0-.227.046-.31.128-.171.171-.171.448,0,.618l13.1259,13.1248c.171.171.448.171.618,0s.171-.448,0-.618L2.4972,1.128c-.082-.082-.194-.128-.31-.128h0l.001.001Z"/>
</svg>