<svg width="16" height="16" xmlns="http://www.w3.org/2000/svg" fill="context-fill" fill-opacity="context-fill-opacity">
  <path d="M9.4808,1.134c-.1709.0265-.33.1041-.4557.2229l-3.3294,3.0898c-.0796.0737-.1837.1149-.2917.1139h-2.2392c-.712,0-1.2885.5775-1.2885,1.2885h0v4.2997c0,.712.5775,1.2885,1.2885,1.2885h2.2402c.108,0,.2131.0412.2917.1149l3.3274,3.0898c.55.5107,1.4437.1208,1.4437-.6286V1.9864c0-.5628-.5038-.9232-.987-.8525ZM9.6095,1.9864v12.0271l-3.3284-3.0898c-.2387-.221-.551-.3437-.8761-.3437h-2.2402c-.2377,0-.4292-.1925-.4292-.4292v-4.2997c0-.2377.1925-.4292.4292-.4292h2.2402c.3251,0,.6374-.1228.8761-.3447l3.3284-3.0898h0v-.001ZM13.5792,3.2711c-.2377-.0118-.44.1719-.4518.4105-.0049.112.0334.222.108.3064,2.0418,2.2854,2.0418,5.7386,0,8.024-.1581.1778-.1424.4498.0344.6079.1758.1581.4469.1424.605-.0344,2.3335-2.6125,2.3335-6.5596,0-9.1721-.0756-.0854-.1817-.1365-.2956-.1424ZM12.4193,5.4239c-.2357.0295-.4027.2445-.3732.4793.0069.057.0255.112.054.1611.6914,1.1972.6914,2.6724,0,3.8696-.1139.2092-.0363.4704.1719.5844.2013.11.4547.0422.5736-.1542.8436-1.4634.8427-3.2656-.002-4.728-.0854-.1493-.2534-.2337-.4243-.2121h0Z"/>
</svg>