<svg width="16" height="16" xmlns="http://www.w3.org/2000/svg" fill="context-fill" fill-opacity="context-fill-opacity">
  <path d="M8.5636.8136c0-.3113-.2524-.5636-.5636-.5636s-.5636.2524-.5636.5636v.5636h-2.2545c-.9339,0-1.6909.757-1.6909,1.6909v3.3818c0,.9339.757,1.6909,1.6909,1.6909h5.6364c.9338,0,1.6909-.757,1.6909-1.6909v-3.3818c0-.9339-.7571-1.6909-1.6909-1.6909h-2.2545v-.5636ZM4.6182,3.0682c0-.3113.2524-.5636.5636-.5636h5.6364c.3112,0,.5636.2524.5636.5636v3.3818c0,.3113-.2524.5636-.5636.5636h-5.6364c-.3113,0-.5636-.2524-.5636-.5636v-3.3818ZM3.4909,11.2409c0-.3112.2524-.5636.5636-.5636h7.8909c.3112,0,.5636.2524.5636.5636v.3945c0,1.067-.4576,1.7769-1.214,2.2482-.7907.4926-1.9392.739-3.2951.739-1.347,0-2.4961-.2462-3.2894-.7394-.7594-.4721-1.2197-1.1825-1.2197-2.2479v-.3945ZM4.0545,9.55c-.9339,0-1.6909.7571-1.6909,1.6909v.3945c0,1.471.6753,2.536,1.7518,3.2053,1.0427.6482,2.43.9093,3.8845.9093,1.4623,0,2.8501-.2609,3.8912-.9096,1.0754-.6701,1.7451-1.7355,1.7451-3.2049v-.3945c0-.9338-.7571-1.6909-1.6909-1.6909h-7.8909ZM7.1545,4.7591c0,.4669-.3785.8455-.8455.8455s-.8455-.3785-.8455-.8455.3785-.8455.8455-.8455.8455.3785.8455.8455ZM9.6909,5.6045c.4669,0,.8455-.3785.8455-.8455s-.3785-.8455-.8455-.8455-.8455.3785-.8455.8455.3785.8455.8455.8455Z"/>
</svg>