<svg width="16" height="16" xmlns="http://www.w3.org/2000/svg" fill="context-fill" fill-opacity="context-fill-opacity">
  <path d="M6.9638,2.3163c.7965-.4573,1.776-.4573,2.5725,0l6.2476,3.5869c.1336.0768.2161.2192.2161.3734s-.0825.2966-.2162.3734l-2.3671,1.359v3.8648c0,.1142-.0454.2236-.1261.3044l-.0014.0014-.0021.002-.0059.0058-.0195.0187c-.0164.0155-.0396.037-.0695.0636-.0597.053-.1462.1267-.2588.2137-.2249.1741-.5546.4033-.9826.6315-.8564.4567-2.1096.9118-3.7009.9118s-2.8445-.4551-3.7009-.9118c-.428-.2282-.7577-.4573-.9826-.6315-.1125-.0871-.1991-.1607-.2588-.2137-.0299-.0265-.0531-.0481-.0695-.0636-.0927-.0895-.1549-.1999-.1549-.3322v-3.8648l-1.7222-.9887v3.9925c0,.2378-.1928.4306-.4306.4306s-.4306-.1928-.4306-.4306v-4.7361c0-.1631.0907-.305.2243-.3781l6.2394-3.5822ZM9.5362,10.2368c-.7965.4573-1.7759.4573-2.5725,0l-3.0193-1.7334v3.1786c.0404.0341.0901.0747.1492.1205.1922.1488.4814.3503.8607.5526.7582.4044,1.873.8105,3.2957.8105s2.5374-.4061,3.2956-.8105c.3793-.2023.6685-.4038.8607-.5526.0591-.0457.1088-.0864.1492-.1205v-3.1786l-3.0193,1.7334ZM9.1075,3.0631c-.531-.3049-1.184-.3049-1.715,0L1.7953,6.2766l5.5972,3.2134c.531.3048,1.1839.3048,1.715,0l5.5972-3.2134-5.5972-3.2135Z"/>
</svg>