<svg width="16" height="16" xmlns="http://www.w3.org/2000/svg" fill="context-fill" fill-opacity="context-fill-opacity">
  <path d="M7.16,1.3431c.3439-.6968,1.3375-.6968,1.6813,0l1.8973,3.8446h4.2927c.2589,0,.4687.2099.4687.4687s-.2098.4687-.4687.4687h-4.2927c-.3569,0-.6827-.2026-.8407-.5226l-1.8973-3.8446-1.8096,3.6668c-.1365.2767-.4005.4685-.7058.5128l-4.0466.588,2.9282,2.8542c.2209.2154.3218.5257.2696.8297l-.6912,4.0303,3.8375-2.0175c.2291-.1205.5125-.0323.633.1968s.0324.5125-.1968.633l-3.8375,2.0175c-.6877.3616-1.4915-.2224-1.3602-.9882l.6912-4.0303L.7841,7.197c-.5564-.5424-.2494-1.4873.5196-1.599l4.0466-.588,1.8097-3.6668ZM9.8745,8.4689c0-.2589.2099-.4687.4687-.4687h4.6873c.2588,0,.4687.2098.4687.4687s-.2099.4687-.4687.4687h-4.6873c-.2588,0-.4687-.2099-.4687-.4687ZM10.3433,10.8125c-.2588,0-.4687.2098-.4687.4687s.2099.4687.4687.4687h4.6873c.2588,0,.4687-.2099.4687-.4687s-.2099-.4687-.4687-.4687h-4.6873Z"/>
</svg>