<svg width="16" height="16" xmlns="http://www.w3.org/2000/svg" fill="context-fill" fill-opacity="context-fill-opacity">
  <path d="M2.2159,3.2679c0-1.5286,1.2393-2.7679,2.7681-2.7679h5.5362c1.5288,0,2.7681,1.2392,2.7681,2.7679v5.5357c0,1.3463-.9612,2.468-2.2349,2.7166.0135-.1656.0204-.3331.0204-.5023,0-.2151-.0112-.4275-.0329-.6368.6621-.2184,1.1401-.8421,1.1401-1.5775V3.8214h-4.9826c-.9173,0-1.6609-.7435-1.6609-1.6607v-.5536h-.5536c-.9173,0-1.6609.7435-1.6609,1.6607v1.8899c-.386.1092-.7565.2555-1.1072.4348v-2.3247ZM10.8444,12.6795c-.1092.3859-.2556.7564-.4349,1.1071h.663c2.446,0,4.429-1.9828,4.429-4.4286v-3.875c0-.9046-.434-1.7079-1.1053-2.213v5.5338c0,.0421-.0007.084-.002.1258v.4284c0,1.8343-1.4873,3.3215-3.3217,3.3215h-.2281ZM6.6449,1.6071v.5536c0,.3057.2479.5536.5536.5536h4.888c-.228-.645-.8432-1.1071-1.5663-1.1071h-3.8754ZM9.9667,11.0179c0,2.7516-2.2308,4.9821-4.9826,4.9821S.0014,13.7694.0014,11.0179s2.2308-4.9821,4.9826-4.9821,4.9826,2.2306,4.9826,4.9821ZM3.8098,9.0607c-.2162-.2162-.5667-.2162-.7829,0s-.2162.5667,0,.7829l1.1743,1.1743-1.1744,1.1744c-.2162.2162-.2162.5668,0,.7829s.5667.2162.7829,0l1.1744-1.1744,1.1743,1.1743c.2162.2162.5667.2162.7829,0s.2162-.5668,0-.7829l-1.1743-1.1743,1.1744-1.1744c.2162-.2162.2162-.5668,0-.7829s-.5667-.2162-.7829,0l-1.1744,1.1744-1.1743-1.1743Z"/>
</svg>