<svg width="16" height="16" xmlns="http://www.w3.org/2000/svg" fill="context-fill" fill-opacity="context-fill-opacity">
  <path d="M3.1864,2.7509c-.1155,0-.2271.0458-.3083.1279-.1708.1708-.1708.4477,0,.6186h0l4.5029,4.5034-4.5029,4.5025c-.1708.1708-.1708.4477,0,.6186s.4476.1708.6185,0l4.5029-4.5034,4.5029,4.5034c.1708.1699.4476.1699.6175,0,.1708-.1708.1708-.4477,0-.6186l-4.5011-4.5025,4.5029-4.5034c.1708-.1708.1708-.4477,0-.6186s-.4476-.1708-.6185,0l-4.5039,4.5025L3.4956,2.8779c-.0821-.0821-.1928-.1279-.3102-.1279h0l.0009.0009Z"/>
</svg>