<svg width="16" height="16" xmlns="http://www.w3.org/2000/svg" fill="context-fill" fill-opacity="context-fill-opacity">
  <path d="M7.8056,5.0242c.3526,0,.6385-.2859.6385-.6386s-.2859-.6386-.6385-.6386-.6386.2859-.6386.6386.2859.6386.6386.6386ZM10.3598,5.8756c.3527,0,.6386-.2859.6386-.6386s-.2859-.6386-.6386-.6386-.6386.2859-.6386.6386.2859.6386.6386.6386ZM12.4883,7.1527c0,.3527-.2859.6386-.6386.6386s-.6386-.2859-.6386-.6386.2859-.6386.6386-.6386.6386.2859.6386.6386ZM11.8498,10.3455c.3527,0,.6386-.2859.6386-.6386s-.2859-.6386-.6386-.6386-.6386.2859-.6386.6386.2859.6386.6386.6386ZM10.7855,11.4098c0,.3527-.2859.6386-.6386.6386s-.6386-.2859-.6386-.6386.2859-.6386.6386-.6386.6386.2859.6386.6386ZM11.1663,2.0371c-2.3453-1.2048-4.7288-1.0892-6.7493.1487-1.031.6317-2.1428,1.9607-2.7705,3.3142-.3156.6804-.5252,1.4014-.5225,2.0725.0028.6819.2277,1.3329.7986,1.7983.5195.4234.9717.6366,1.4094.6582.441.0218.7853-.1568,1.0545-.3157.0592-.0349.1146-.0686.1676-.1008.2062-.1252.3754-.228.5869-.2951.2396-.0759.543-.104.9836.0307.1625.0496.2604.1233.3289.2079.0731.0902.1315.2167.1752.3965.044.1814.0679.3951.0858.6475.0067.0939.0129.2013.0194.3137.0095.1636.0195.3383.0326.499.0465.571.1447,1.223.4886,1.8152.3525.6071.9375,1.1096,1.876,1.4305,1.3642.4664,2.6105.088,3.5807-.6802.9591-.7594,1.6658-1.9078,2.0192-3.0563,1.1195-3.6385-.18-7.1461-3.5649-8.8849ZM4.8618,2.9118c1.7576-1.0769,3.8245-1.1915,5.9155-.1174,2.9859,1.5339,4.1491,4.598,3.1401,7.8773-.3116,1.0128-.932,2.0041-1.7339,2.6391-.7909.6262-1.7397.8966-2.7768.5421-.7693-.263-1.1782-.6443-1.4151-1.0523-.2456-.4229-.3324-.9178-.3763-1.4569-.0131-.1613-.0214-.3068-.0298-.4547-.0064-.1124-.0128-.2261-.0215-.3492-.0187-.2633-.0463-.535-.1077-.7879-.0617-.2544-.1623-.511-.3408-.7315-.183-.2261-.4291-.3909-.7419-.4865-.5973-.1825-1.0773-.1587-1.4897-.0281-.3193.1012-.5945.2697-.8059.3992-.0442.027-.0856.0524-.124.075-.2428.1433-.4024.2075-.5798.1986-.1808-.0089-.4619-.0997-.9135-.4679-.3283-.2676-.4831-.6499-.4851-1.1418-.0021-.5027.1584-1.0961.4435-1.7108.5735-1.2367,1.5849-2.4208,2.4429-2.9465Z"/>
</svg>