<svg width="16" height="16" xmlns="http://www.w3.org/2000/svg" fill="context-fill" fill-opacity="context-fill-opacity">
  <path d="M2.6563.8751c-.9795,0-1.7813.8019-1.7813,1.7814v1.3359c0,.2461.1995.4456.4456.4456s.4456-.1995.4456-.4456v-1.3359c0-.4969.3943-.8902.8901-.8902h1.3358c.2461,0,.4456-.1995.4456-.4456s-.1995-.4456-.4456-.4456h-1.3367.001-.0002,0ZM12.0078.8751c-.2461,0-.4456.1995-.4456.4456s.1995.4456.4456.4456h1.3358c.4969,0,.8901.3943.8901.8902v1.3359c0,.2461.1995.4456.4456.4456s.4456-.1995.4456-.4456v-1.3359c0-.9796-.8018-1.7814-1.7813-1.7814h-1.3367.001-.0002ZM4.8833,2.6566c-1.2284.0038-2.2232.9986-2.2269,2.227v6.2346c0,1.2247,1.0013,2.227,2.2269,2.227h6.2342c1.2246,0,2.2269-1.0014,2.2269-2.227v-6.2346c0-1.2247-1.0013-2.227-2.2269-2.227,0,0-6.2342,0-6.2342,0ZM4.8833,3.5468h2.2269v1.3359c0,.7324.6023,1.3359,1.3358,1.3359h4.0082v4.8978c0,.743-.5938,1.3359-1.3358,1.3359h-6.2342c-.743,0-1.3358-.5938-1.3358-1.3359v-6.2346c0-.743.5938-1.3359,1.3358-1.3359h-.001v.001h.0001ZM7.9995,3.5468h3.1162c.743,0,1.3358.5938,1.3358,1.3359v.4456h-4.0082c-.2422.0029-.4418-.1901-.4456-.4323v-1.3472h.0019v-.0019ZM1.3206,11.562c-.2461,0-.4456.1995-.4456.4456v1.3359c0,.9796.8018,1.7814,1.7813,1.7814h1.3358c.2461,0,.4456-.1995.4456-.4456s-.1995-.4456-.4456-.4456h-1.3358c-.4969,0-.8901-.3943-.8901-.8902v-1.3359c0-.2461-.1995-.4456-.4456-.4456h.001-.001.0001ZM14.6794,11.562c-.2461,0-.4456.1995-.4456.4456v1.3359c0,.4969-.3943.8902-.8901.8902h-1.3358c-.2461,0-.4456.1995-.4456.4456s.1995.4456.4456.4456h1.3358c.9795,0,1.7813-.8019,1.7813-1.7814v-1.3359c0-.2461-.1995-.4456-.4456-.4456h.001-.001.0001Z"/>
</svg>