<svg width="16" height="16" xmlns="http://www.w3.org/2000/svg" fill="context-fill" fill-opacity="context-fill-opacity">
  <path d="M14.1712,1.9199c-.9904-1.0415-2.6443-1.0624-3.6605-.0462L2.4533,9.9304c-.2818.2818-.4773.638-.5637,1.0269l-.7543,3.3947c-.0319.1434.0118.2932.1157.3971.1039.1039.2537.1475.3971.1156l3.3746-.7505c.4017-.0893.7697-.2913,1.0607-.5824L14.1262,5.4893c.9806-.9806,1.0006-2.5643.0449-3.5694ZM11.1183,2.4815c.6746-.6746,1.7726-.6607,2.43.0307.6344.6672.6211,1.7185-.0299,2.3694l-.5769.5769-2.4001-2.4001.577-.5769ZM9.9336,3.6661l2.4002,2.4001-6.8582,6.858c-.1755.1755-.3973.2973-.6395.3512l-2.7153.6038.6078-2.7354c.051-.2294.1663-.4394.3325-.6056l6.8726-6.8721Z"/>
</svg>