<svg width="16" height="16" xmlns="http://www.w3.org/2000/svg" fill="context-fill" fill-opacity="context-fill-opacity">
  <path d="M8.4421,14.0589l5.5614-5.614c1.5002-1.5237,1.4955-3.9846-.015-5.5102-1.4809-1.4959-3.8545-1.5346-5.367-.1083-.0326.0308-.0648.0622-.0965.0942l-.5312.5375-.5385-.5439c-.0295-.0298-.0594-.0591-.0896-.0877-1.5157-1.4374-3.8932-1.4154-5.3675.0737-1.5036,1.5188-1.4964,3.9866.0139,5.5119l5.5903,5.6467c.2319.2342.6078.2342.8397,0h0ZM9.1577,3.5472c1.1546-1.1658,3.0303-1.1652,4.1978.0141,1.1685,1.1803,1.1702,3.0827.0142,4.2579l-.0009.0009-5.3464,5.3971L2.6449,7.7857c-1.1697-1.1815-1.1708-3.0902-.0139-4.2587,1.1519-1.1635,3.0263-1.1626,4.1913.0141l.8552.8637c.1743.1761.459.176.6332-.0003l.8469-.8572h0Z"/>
</svg>