<svg width="16" height="16" xmlns="http://www.w3.org/2000/svg" fill="context-fill" fill-opacity="context-fill-opacity">
  <path d="M14.0035,8.4448l-5.5614,5.614c-.2318.2342-.6078.2342-.8397,0l-5.5903-5.6468c-1.5102-1.5253-1.5175-3.9932-.0139-5.5119,1.4742-1.4891,3.8517-1.5111,5.3675-.0737.0302.0287.06.0579.0896.0877l.5382.5436.0503-.0504.4812-.4869c.0318-.0321.064-.0636.0965-.0942,1.5126-1.4262,3.886-1.3876,5.367.1083,1.5105,1.5256,1.5152,3.9865.015,5.5102h0ZM8.8754,3.8329c-.0084.0099-.0172.0196-.0265.0289l-.1735.1735-.3646.369c-.0133.0134-.0271.0257-.0415.0371l-.8867.8868,2.0602,2.0602c.1739.1739.1739.4559,0,.6298l-1.7813,1.7814c-.1739.1739-.4559.1739-.6298,0-.1739-.1739-.1739-.4559,0-.6298l1.4665-1.4665-2.0603-2.0602c-.1739-.1739-.1739-.4559,0-.6298l.9258-.9258-.5413-.5467c-1.1649-1.1767-3.0393-1.1775-4.1913-.0141-1.1569,1.1686-1.1558,3.0772.0139,4.2587l5.3774,5.4315,5.3464-5.3971.0009-.0009c1.156-1.1752,1.1544-3.0776-.0142-4.2579-1.1674-1.1792-3.0432-1.1798-4.1978-.0141l-.2823.2858h0Z"/>
</svg>