<svg width="16" height="16" xmlns="http://www.w3.org/2000/svg" fill="context-fill" fill-opacity="context-fill-opacity">
  <path d="M4.0714,2.1071c-1.0849,0-1.9643.8794-1.9643,1.9643v7.8571c0,1.0849.8794,1.9643,1.9643,1.9643h7.8571c1.0849,0,1.9643-.8794,1.9643-1.9643v-2.4554c0-.2712.2199-.4911.4911-.4911s.4911.2199.4911.4911v2.4554c0,1.6273-1.3191,2.9464-2.9464,2.9464h-7.8571c-1.6272,0-2.9464-1.3191-2.9464-2.9464v-7.8571c0-1.6272,1.3192-2.9464,2.9464-2.9464h2.4554c.2712,0,.4911.2199.4911.4911s-.2199.4911-.4911.4911h-2.4554ZM8.9821,1.6161c0-.2712.2199-.4911.4911-.4911h4.9107c.2712,0,.4911.2199.4911.4911v4.9107c0,.2712-.2199.4911-.4911.4911s-.4911-.2199-.4911-.4911v-3.7252l-4.0724,4.0724c-.1918.1918-.5028.1918-.6946,0-.1917-.1918-.1917-.5027,0-.6945l4.0725-4.0725h-3.7252c-.2712,0-.4911-.2199-.4911-.4911h0Z"/>
</svg>