<svg width="16" height="16" xmlns="http://www.w3.org/2000/svg" fill="context-fill" fill-opacity="context-fill-opacity">
  <path d="M8.9375,1.4375c-.6473,0-1.1719.5247-1.1719,1.1719v.7031h-3.0469c-.2589,0-.4688.2099-.4688.4688v3.0469h-.7031c-.6472,0-1.1719.5247-1.1719,1.1719s.5247,1.1719,1.1719,1.1719h.7031v3.0469c0,.2588.2099.4688.4688.4688h3.0469v.7031c0,.6472.5246,1.1719,1.1719,1.1719s1.1719-.5246,1.1719-1.1719v-.7031h3.0469c.2588,0,.4688-.2099.4688-.4688v-2.1094h-.7031c-1.1649,0-2.1094-.9444-2.1094-2.1094s.9444-2.1094,2.1094-2.1094h.7031v-2.1094c0-.2589-.2099-.4688-.4688-.4688h-3.0469v-.7031c0-.6472-.5246-1.1719-1.1719-1.1719ZM6.841,2.375c.1166-1.0547,1.0107-1.875,2.0965-1.875s1.9799.8203,2.0965,1.875h2.1222c.7766,0,1.4062.6296,1.4062,1.4062v3.0469h-1.6406c-.6473,0-1.1719.5247-1.1719,1.1719s.5246,1.1719,1.1719,1.1719h1.6406v3.0469c0,.7766-.6296,1.4062-1.4062,1.4062h-2.1222c-.1166,1.0547-1.0108,1.875-2.0965,1.875s-1.9799-.8203-2.0965-1.875h-2.1222c-.7767,0-1.4062-.6296-1.4062-1.4062v-2.1222c-1.0547-.1166-1.875-1.0108-1.875-2.0965s.8203-1.9799,1.875-2.0965v-2.1222c0-.7767.6296-1.4062,1.4062-1.4062h2.1222Z"/>
</svg>