<svg width="16" height="16" xmlns="http://www.w3.org/2000/svg" fill="context-fill" fill-opacity="context-fill-opacity">
  <path d="M1.8237,4.2941v5.4386l1.2358-2.1405c.4413-.7644,1.2569-1.2353,2.1396-1.2353h6.5069v-.4158c0-.6822-.5531-1.2353-1.2353-1.2353h-3.2941c-.1092,0-.2139-.0434-.2912-.1206l-1.4058-1.4058c-.0772-.0772-.182-.1206-.2912-.1206h-2.1294c-.6822,0-1.2353.5531-1.2353,1.2353ZM2.8806,12.9284c.0588.0084.1193.0128.1813.0128h7.739c.5884,0,1.1322-.3139,1.4263-.8235l1.7807-3.0842c.4754-.8235-.1189-1.8529-1.0698-1.8529h-7.739c-.5884,0-1.1322.3139-1.4264.8235l-1.7807,3.0842c-.3479.6026-.123,1.3154.3952,1.6545.1461.0948.3134.1596.4933.1856ZM1.0002,11.6735v-7.3793c0-1.137.9218-2.0588,2.0588-2.0588h2.1294c.3276,0,.6418.1301.8735.3618l1.2852,1.2852h3.1236c1.137,0,2.0588.9218,2.0588,2.0588v.4158h.4086c1.5849,0,2.5754,1.7157,1.783,3.0882l-1.7807,3.0842c-.4413.7644-1.2569,1.2353-2.1395,1.2353H3.059c-.0514,0-.1024-.0019-.1529-.0056-.4621-.0334-.8674-.2144-1.1842-.4876-.4209-.3598-.6949-.8863-.7199-1.4772-.0018-.0401-.0024-.0804-.0019-.1207Z"/>
</svg>