<svg width="16" height="16" xmlns="http://www.w3.org/2000/svg" fill="context-fill" fill-opacity="context-fill-opacity">
  <path d="M3.4706,2.2941c-1.1574,0-2.0956.9382-2.0956,2.0956v7.5441c0,1.1574.9382,2.0956,2.0956,2.0956h4.2748c-.1357-.2656-.2465-.546-.3292-.8382h-3.9456c-.6944,0-1.2574-.563-1.2574-1.2574v-5.4485h3.4249c.3335,0,.6533-.1325.8891-.3683l1.3082-1.3082h4.8558c.6944,0,1.2574.5629,1.2574,1.2574v1.7601c.2999.1533.5808.3385.8382.5511v-2.3112c0-1.1574-.9382-2.0956-2.0956-2.0956h-4.8558l-1.2468-1.2468c-.2751-.2751-.6482-.4296-1.0373-.4296h-2.0807ZM2.2132,4.3897c0-.6944.5629-1.2574,1.2574-1.2574h2.0807c.1667,0,.3266.0662.4445.1841l1.0732,1.0732-1.1346,1.1346c-.0786.0786-.1852.1228-.2964.1228h-3.4249v-1.2574ZM15.625,11.9338c0,2.0833-1.6888,3.7721-3.7721,3.7721s-3.7721-1.6888-3.7721-3.7721,1.6888-3.7721,3.7721-3.7721,3.7721,1.6888,3.7721,3.7721ZM12.2721,10.2574c0-.2314-.1877-.4191-.4191-.4191s-.4191.1877-.4191.4191v1.2574h-1.2574c-.2314,0-.4191.1877-.4191.4191s.1877.4191.4191.4191h1.2574v1.2574c0,.2314.1877.4191.4191.4191s.4191-.1877.4191-.4191v-1.2574h1.2574c.2314,0,.4191-.1877.4191-.4191s-.1877-.4191-.4191-.4191h-1.2574v-1.2574Z"/>
</svg>