<svg width="16" height="16" xmlns="http://www.w3.org/2000/svg" fill="context-fill" fill-opacity="context-fill-opacity">
  <path d="M8,.5c4.1422,0,7.5,3.3579,7.5,7.5s-3.3578,7.5-7.5,7.5S.5,12.1422.5,8,3.8579.5,8,.5ZM8,1.4375c-3.6244,0-6.5625,2.9381-6.5625,6.5625s2.9381,6.5625,6.5625,6.5625,6.5625-2.9381,6.5625-6.5625S11.6244,1.4375,8,1.4375ZM8,11.2812c.3883,0,.7031.3148.7031.7031s-.3148.7031-.7031.7031-.7031-.3148-.7031-.7031.3148-.7031.7031-.7031ZM8,3.7812c1.2944,0,2.3438,1.0493,2.3438,2.3438,0,.684-.2955,1.3198-.7957,1.7598l-.1449.1175-.2048.1529-.0821.0672c-.0523.0449-.1004.0905-.1463.1394-.3172.338-.5012.8028-.5012,1.5132,0,.2588-.2099.4688-.4688.4688s-.4688-.2099-.4688-.4688c0-.9488.2748-1.643.7551-2.1547.1042-.111.2124-.2079.3333-.3027l.2313-.1728.1106-.0935c.2807-.2628.4447-.6306.4447-1.0263,0-.7767-.6296-1.4062-1.4062-1.4062s-1.4062.6296-1.4062,1.4062c0,.2589-.2099.4688-.4688.4688s-.4688-.2099-.4688-.4688c0-1.2944,1.0493-2.3438,2.3438-2.3438Z"/>
</svg>