<svg width="16" height="16" xmlns="http://www.w3.org/2000/svg" fill="context-fill" fill-opacity="context-fill-opacity">
  <path d="M8,1.7857c3.432,0,6.2143,2.7822,6.2143,6.2143s-2.7822,6.2143-6.2143,6.2143S1.7857,11.432,1.7857,8c0-.1611.0061-.3207.0181-.4786.0217-.2852-.1919-.534-.4771-.5556s-.534.1919-.5557.4771c-.014.184-.0211.3698-.0211.5571,0,4.0041,3.2459,7.25,7.25,7.25s7.25-3.2459,7.25-7.25S12.0041.75,8,.75c-2.029,0-3.8631.8337-5.1786,2.1761v-1.6583c0-.286-.2319-.5179-.5179-.5179s-.5179.2319-.5179.5179v3.1071c0,.286.2319.5179.5179.5179h3.1071c.286,0,.5179-.2319.5179-.5179s-.2319-.5179-.5179-.5179h-2.0427c1.1384-1.272,2.792-2.0714,4.632-2.0714ZM8,4.375c0-.286-.2319-.5179-.5179-.5179s-.5179.2319-.5179.5179v4.1429c0,.286.2319.5179.5179.5179h3.1071c.286,0,.5179-.2319.5179-.5179s-.2319-.5179-.5179-.5179h-2.5893v-3.625Z"/>
</svg>