<svg width="16" height="16" xmlns="http://www.w3.org/2000/svg" fill="context-fill" fill-opacity="context-fill-opacity">
  <path d="M7.096,4.8233c0-2.2517,1.8253-4.077,4.077-4.077.5974,0,1.1659.1288,1.6784.3605.1355.0613.2323.1852.259.3315.0266.1463-.0202.2964-.1253.4016l-2.0775,2.0774,1.1715,1.1714,2.0774-2.0774c.1052-.1052.2552-.152.4015-.1253.1463.0267.2703.1235.3315.259.2318.5124.3605,1.081.3605,1.6784,0,2.2517-1.8253,4.077-4.077,4.077-.3448,0-.6801-.0429-1.0007-.1239l-5.7666,5.8419c-.7678.7778-1.999.8505-2.853.1682-.9831-.7853-1.0776-2.2462-.2039-3.1516l5.8215-6.0333c-.0488-.2522-.0743-.5125-.0743-.7784ZM11.173,1.6523c-1.7513,0-3.171,1.4197-3.171,3.171,0,.2779.0357.5468.1024.8027.0399.1528-.0027.3152-.1124.4288l-5.9912,6.2092c-.5031.5214-.4487,1.3625.1174,1.8147.4917.3928,1.2006.351,1.6427-.0969l5.9559-6.0337c.1208-.1224.3006-.1658.464-.1121.3116.1025.6449.1582.9922.1582,1.7513,0,3.171-1.4197,3.171-3.171,0-.2235-.023-.4414-.0669-.6514l-1.8778,1.8777c-.1769.1769-.4637.1769-.6406,0l-1.812-1.812c-.085-.0849-.1327-.2002-.1327-.3203s.0477-.2354.1326-.3203l1.8779-1.8778c-.2101-.0438-.428-.0669-.6515-.0669Z"/>
</svg>