<svg width="16" height="16" xmlns="http://www.w3.org/2000/svg" fill="context-fill" fill-opacity="context-fill-opacity">
  <path d="M1.9732,2.5089v10.9821c0,1.1095.8994,2.0089,2.0089,2.0089h8.0357c1.1095,0,2.0089-.8994,2.0089-2.0089h0v-7.1371c0-.666-.2652-1.3048-.7353-1.7759l-3.3429-3.3429c-.471-.4709-1.1098-.7354-1.7759-.7353H3.9821c-1.1095,0-2.0089.8994-2.0089,2.0089ZM3.9821,1.5045h4.0179v3.5156c0,.8321.6746,1.5067,1.5067,1.5067h3.5156v6.9643c0,.5547-.4497,1.0045-1.0045,1.0045H3.9821c-.5548,0-1.0045-.4497-1.0045-1.0045V2.5089c0-.5548.4497-1.0045,1.0045-1.0045ZM9.0045,1.7556c.0834.0552.1617.1185.233.1908l3.3429,3.3419c.0723.0723.1356.1507.1908.234h-3.2645c-.2774,0-.5022-.2249-.5022-.5022V1.7556Z"/>
</svg>