<svg width="16" height="16" xmlns="http://www.w3.org/2000/svg" fill="context-fill" fill-opacity="context-fill-opacity">
  <path d="M12.5312,4.375c0,.5005-.4057.9062-.9062.9062s-.9062-.4057-.9062-.9062.4057-.9062.9062-.9062.9062.4057.9062.9062ZM10.2656.75c-2.7878,0-4.9844,2.1966-4.9844,4.9844,0,.3595.0363.7214.1101,1.0644.0527.2447-.007.4573-.1281.5783L1.1482,11.4923c-.2549.2549-.3982.6007-.3982.9612v1.4371c0,.7507.6086,1.3594,1.3594,1.3594h1.8125c.7508,0,1.3594-.6086,1.3594-1.3594v-.4531h.9062c.5005,0,.9062-.4057.9062-.9062v-.9062h.9062c.5005,0,.9062-.4057.9062-.9062v-.1632c.4472.1212.9125.1632,1.3594.1632,2.7877,0,4.9844-2.1967,4.9844-4.9844S13.0533.75,10.2656.75ZM6.1875,5.7344c0-2.2872,1.7909-4.0781,4.0781-4.0781s4.0781,1.7909,4.0781,4.0781-1.7908,4.0781-4.0781,4.0781c-.5974,0-1.1533-.0864-1.6099-.3147-.1405-.0702-.3073-.0627-.4409.0198-.1336.0826-.2149.2284-.2149.3854v.8156h-.9062c-.5005,0-.9062.4057-.9062.9062v.9062h-.9062c-.5005,0-.9062.4057-.9062.9062v.4531c0,.2502-.2029.4531-.4531.4531h-1.8125c-.2503,0-.4531-.2029-.4531-.4531v-1.4371c0-.1202.0477-.2354.1327-.3204l4.1151-4.1152c.3916-.3916.4732-.9458.3732-1.4099-.0594-.276-.0898-.5736-.0898-.8737Z"/>
</svg>