<svg width="16" height="16" xmlns="http://www.w3.org/2000/svg" fill="context-fill" fill-opacity="context-fill-opacity">
  <path d="M11.4943,0h-6.9885C2.0173,0,0,2.0173,0,4.5057v6.9885c0,2.4885,2.0173,4.5057,4.5057,4.5057h6.9885c2.4885,0,4.5057-2.0173,4.5057-4.5057v-6.9885c0-2.4885-2.0173-4.5057-4.5057-4.5057ZM14.497,4c.2761,0,.5.2239.5.5s-.2239.5-.5.5h-6.5c0-.3373-.0427-.6733-.127-1h6.627ZM4,2c1.6569,0,3,1.3431,3,3s-1.3431,3-3,3-3-1.3431-3-3,1.3431-3,3-3ZM1.5,12c-.2761,0-.5-.2239-.5-.5s.2239-.5.5-.5h6.495c.0026.3377.048.6737.135,1H1.5ZM12,14c-1.6569,0-3-1.3431-3-3s1.3431-3,3-3,3,1.3431,3,3-1.3431,3-3,3Z"/>
  <circle cx="12" cy="11" r="2"/>
  <circle cx="4" cy="5" r="2"/>
</svg>