<svg width="16" height="16" xmlns="http://www.w3.org/2000/svg" fill="context-fill" fill-opacity="context-fill-opacity">
  <path d="M7.6615,2.0343c.571-1.142,2.0931-1.389,2.9958-.4862l3.7945,3.7944c.9028.9028.6558,2.4249-.4862,2.9959l-3.2348,1.6174c-.3073.1537-.5475.4147-.6752.7338l-1.343,3.3578c-.2495.6235-1.055.7889-1.5298.314l-2.4414-2.4415-3.0799,3.0799h-.6614v-.6614l3.0799-3.0799-2.4414-2.4414c-.4748-.4748-.3095-1.2804.314-1.5298l3.3578-1.3431c.319-.1276.5801-.3679.7338-.6752l1.6174-3.2348h0ZM9.9959,2.2095c-.4514-.4514-1.2125-.3279-1.4979.2431l-1.6174,3.2348c-.2561.5122-.6913.9127-1.223,1.1253l-3.3578,1.3431,5.5444,5.5444,1.3431-3.3577c.2127-.5317.6131-.9669,1.1253-1.223l3.2348-1.6174c.571-.2855.6945-1.0465.2431-1.4979l-3.7945-3.7944v-.0002Z"/>
</svg>