<svg width="16" height="16" xmlns="http://www.w3.org/2000/svg" fill="context-fill" fill-opacity="context-fill-opacity">
  <path d="M8.0003,1.44c-.4462,0-.8942.2278-1.1415.6833L1.1633,12.6054c-.4779.8793.1503,1.9546,1.1415,1.9546h11.3909c.9903,0,1.6185-1.0762,1.1415-1.9546L9.1418,2.1233c-.224-.4219-.6636-.6851-1.1415-.6833ZM8.0003,4.9403c.4844,0,.8746.3902.8746.8746v3.4993c0,.4844-.3901.8746-.8746.8746s-.8746-.3902-.8746-.8746v-3.4993c0-.4844.3901-.8746.8746-.8746ZM8.0003,11.0644c.4844,0,.8746.3902.8746.8746s-.3901.8746-.8746.8746-.8746-.3902-.8746-.8746.3901-.8746.8746-.8746Z"/>
</svg>