<svg width="16" height="16" xmlns="http://www.w3.org/2000/svg" fill="context-fill" fill-opacity="context-fill-opacity">
  <path d="M8,.5c-.5268-.0007-1.0522.054-1.5676.1631-.1756.0375-.3113.177-.3441.3535l-.3225,1.771c-.0883.4797-.5488.797-1.0285.7087-.0462-.0085-.0917-.0207-.1359-.0364l-1.6923-.6047c-.1682-.0606-.3564-.0136-.4763.1191-.7096.7847-1.2451,1.7107-1.5713,2.717-.0554.1701-.0024.3568.1341.4725l1.3716,1.1644c.371.3151.4164.8712.1013,1.2422-.031.0365-.0648.0703-.1013.1013l-1.3716,1.1644c-.1362.1158-.1892.3024-.1341.4725.326,1.0065.8615,1.9325,1.5713,2.717.1199.1326.3081.1797.4763.1191l1.6923-.6038c.4589-.1638.9637.0754,1.1275.5343.016.0449.0284.091.037.1379l.3225,1.771c.0319.1753.1688.316.3441.3535.5154.1088,1.0408.1632,1.5676.1622.5316,0,1.0557-.0534,1.5676-.1622.1755-.0374.311-.177.3431-.3535l.3235-1.772c.0883-.4797.5488-.797,1.0285-.7087.0462.0085.0917.0207.1359.0364l1.6923.6047c.1682.0606.3564.0136.4763-.1191.7096-.7847,1.2451-1.7107,1.5713-2.717.0554-.1701.0024-.3568-.1341-.4725l-1.3716-1.1644c-.371-.3151-.4164-.8712-.1013-1.2422.031-.0365.0648-.0703.1013-.1013l1.3716-1.1644c.1362-.1158.1892-.3024.1341-.4725-.326-1.0065-.8615-1.9325-1.5713-2.717-.1199-.1326-.3081-.1797-.4763-.1191l-1.6923.6047c-.4589.1638-.9637-.0754-1.1275-.5343-.016-.0449-.0284-.091-.037-.1379l-.3244-1.772c-.0324-.1759-.1674-.3149-.3422-.3525-.5154-.1091-1.0408-.1638-1.5676-.1631ZM8,1.3822c.3703,0,.7369.03,1.0969.09l.2672,1.4738c.1735.9579,1.0907,1.5937,2.0486,1.4202.096-.0174.1904-.0427.2822-.0757l1.4082-.5035c.4688.5672.841,1.2085,1.0988,1.8986l-1.1429.9685c-.743.6313-.8336,1.7454-.2023,2.4885.0619.0728.1295.1405.2023.2023l1.1438.9694c-.2581.6898-.6299,1.3315-1.0998,1.8986l-1.4082-.5035c-.9174-.3287-1.9275.1486-2.2562,1.066-.0324.0903-.0573.1831-.0746.2775l-.2672,1.4738c-.7269.1209-1.4688.1209-2.1958,0l-.2653-1.4738c-.174-.9578-1.0915-1.5932-2.0493-1.4191-.0958.0174-.1899.0427-.2815.0756l-1.4082.5035c-.4694-.5673-.8408-1.2089-1.0988-1.8986l1.1429-.9685c.7433-.631.8343-1.7451.2033-2.4884-.0621-.0732-.1301-.1412-.2033-.2033l-1.1438-.9694c.2582-.6897.6299-1.3314,1.0998-1.8986l1.4082.5035c.9174.3286,1.9275-.1488,2.2561-1.0662.0324-.0906.0574-.1836.0747-.2782l.2653-1.4738c.3632-.0599.7307-.0897,1.0988-.0891ZM8,5.6575c-1.2942-.0259-2.3644,1.0023-2.3903,2.2966s1.0023,2.3644,2.2966,2.3903c.0312.0006.0625.0006.0937,0,1.2945,0,2.3439-1.0494,2.3439-2.3439s-1.0494-2.3439-2.3439-2.3439v.0009ZM8,6.5951c.7767-.0004,1.4067.6288,1.4071,1.4055.0004.7767-.6288,1.4067-1.4055,1.4071h-.0016c-.7767,0-1.4063-.6296-1.4063-1.4063s.6296-1.4063,1.4063-1.4063Z"/>
</svg>