<svg width="16" height="16" xmlns="http://www.w3.org/2000/svg" fill="context-fill" fill-opacity="context-fill-opacity">
  <path d="M11.0616,1.4682c-.2929-.016-.5432.2084-.5592.5013-.0007.0121-.0009.0242-.0007.0363v1.987l-.21.0149c-3.3244.2632-5.2732,2.3669-5.7379,6.185-.0597.49.5021.7961.8661.4713,1.3365-1.1928,2.7168-1.9338,4.1485-2.2306.2296-.0476.4601-.0831.6925-.1073l.2408-.0224v1.9562l.0056.0765c.056.4228.5693.6216.8838.3117l4.1961-4.1271.0551-.0616c.1625-.2194.139-.5248-.0551-.7168L11.391,1.6175l-.0579-.0495c-.0787-.0593-.1732-.094-.2716-.0999h.0001ZM4.0833,2.3997c-1.2886,0-2.3333,1.0446-2.3333,2.3333v7.4664c0,1.2886,1.0446,2.3333,2.3333,2.3333h7.4664c1.2886,0,2.3333-1.0446,2.3333-2.3333v-.9333c0-.2577-.2089-.4667-.4667-.4667s-.4667.2089-.4667.4667v.9333c0,.7732-.6268,1.4-1.4,1.4h-7.4663c-.7732,0-1.4-.6268-1.4-1.4v-7.4664c0-.7732.6268-1.4,1.4-1.4h2.7999c.2577,0,.4667-.2089.4667-.4667s-.2089-.4667-.4667-.4667h-2.7999ZM11.4349,2.9699l3.2171,3.163-3.2171,3.163v-2.0131l-1.2656.1139-.0065.0009c-1.5894.1699-3.0892.8064-4.5041,1.8666.2781-1.2488.7532-2.1877,1.3776-2.8615.7746-.8344,1.8563-1.3458,3.3254-1.4634l1.0733-.0728v-1.8974.0009h-.0001Z"/>
</svg>