<svg width="16" height="16" xmlns="http://www.w3.org/2000/svg" fill="context-fill" fill-opacity="context-fill-opacity">
  <path d="M8.4667,1c0-.2577-.2089-.4667-.4667-.4667s-.4667.2089-.4667.4667v14c0,.2577.2089.4667.4667.4667s.4667-.209.4667-.4667V1ZM2.8667,2.4c-1.0309,0-1.8667.8357-1.8667,1.8667v7.4667c0,1.031.8357,1.8667,1.8667,1.8667h3.7333v-.9333h-3.7333c-.5155,0-.9333-.4179-.9333-.9333v-7.4667c0-.5155.4179-.9333.9333-.9333h3.7333v-.9333h-3.7333ZM9.4,2.4v.9333h3.7333c.5155,0,.9333.4179.9333.9333v7.4667c0,.5155-.4179.9333-.9333.9333h-3.7333v.9333h3.7333c1.031,0,1.8667-.8357,1.8667-1.8667v-7.4667c0-1.0309-.8357-1.8667-1.8667-1.8667h-3.7333Z"/>
</svg>