<svg width="16" height="16" xmlns="http://www.w3.org/2000/svg" fill="context-fill" fill-opacity="context-fill-opacity">
  <path d="M12.8985,5.3289c1.1805,0,2.1463.9187,2.2217,2.0801l.0047.1464v5.3432c0,1.1804-.9186,2.1463-2.08,2.2216l-.1464.0048h-5.3432c-1.1804,0-2.1463-.9187-2.2217-2.0801l-.0047-.1463v-5.3432c0-1.1805.9187-2.1463,2.0801-2.2217l.1464-.0047h5.3432ZM12.8985,6.2195h-5.3432c-.6944,0-1.265.5298-1.3298,1.2072l-.0061.1287v5.3432c0,.6943.5298,1.265,1.2072,1.3297l.1287.0061h5.3432c.6944,0,1.2651-.5298,1.3297-1.2073l.0061-.1286v-5.3432c0-.6944-.5298-1.265-1.2072-1.3298l-.1287-.0061ZM10.3713,2.3856l.0425.1402.5124,1.9125h-.9226l-.4499-1.682c-.1797-.6707-.8392-1.0848-1.5103-.972l-.1258.0274-5.1611,1.3829c-.6707.1797-1.0848.8392-.972,1.5102l.0274.1259,1.3829,5.1611c.1558.5814.6721.9699,1.2439.9896v.8911c-.9145-.0186-1.7492-.6039-2.0577-1.4984l-.0465-.1518L.9514,5.0612c-.3055-1.1402.3318-2.311,1.4342-2.6844l.1402-.0425L7.6869.9514c1.0927-.2928,2.2134.2804,2.6336,1.2988l.0508.1353ZM12.3213,10.5419l.0022-.0022c.0417-.0422.0733-.0907.0947-.1424.0214-.0517.0334-.1083.0338-.1677v-.0053c-.0004-.0594-.0123-.116-.0338-.1677-.0217-.0525-.0539-.1016-.0966-.1444l-1.78-1.78c-.1738-.1737-.4555-.1737-.6293,0-.1738.1738-.1738.4556,0,.6293l1.0203,1.0204h-2.4857c-.2458,0-.445.1992-.445.445s.1992.445.445.445h2.4857s-1.0203,1.0203-1.0203,1.0203c-.1738.1738-.1738.4556,0,.6293.1738.1738.4555.1738.6293,0l1.7796-1.7796Z"/>
</svg>