<svg width="16" height="16" xmlns="http://www.w3.org/2000/svg" fill="context-fill" fill-opacity="context-fill-opacity">
  <path d="M12.8985,5.3289c1.1805,0,2.1463.9187,2.2217,2.0801l.0047.1464v5.3432c0,1.1804-.9186,2.1463-2.08,2.2216l-.1464.0048h-5.3432c-1.1804,0-2.1463-.9187-2.2217-2.0801l-.0047-.1463v-5.3432c0-1.1805.9187-2.1463,2.0801-2.2217l.1464-.0047h5.3432ZM12.8985,6.2195h-5.3432c-.6944,0-1.265.5298-1.3298,1.2072l-.0061.1287v5.3432c0,.6943.5298,1.265,1.2072,1.3297l.1287.0061h5.3432c.6944,0,1.2651-.5298,1.3297-1.2073l.0061-.1286v-5.3432c0-.6944-.5298-1.265-1.2072-1.3298l-.1287-.0061ZM10.227,7.1101c.2185,0,.4004.1575.4381.3652l.0072.08-.0009,2.2263,2.2274.0002c.246,0,.4453.1993.4453.4453,0,.2185-.1575.4004-.3652.4381l-.0801.0072-2.2274-.0002.0009,2.2266c0,.2459-.1994.4453-.4453.4453-.2186,0-.4004-.1575-.4382-.3652l-.0071-.0801-.0009-2.2266-2.2254.0002c-.2459,0-.4453-.1994-.4453-.4453,0-.2186.1575-.4004.3653-.4382l.08-.0071,2.2254-.0002.0009-2.2263c0-.2459.1993-.4453.4453-.4453ZM10.3713,2.3856l.0425.1402.5124,1.9125h-.9226l-.4499-1.682c-.1797-.6707-.8392-1.0848-1.5103-.972l-.1258.0274-5.1611,1.3829c-.6707.1797-1.0848.8392-.972,1.5102l.0274.1259,1.3829,5.1611c.1558.5814.6721.9699,1.2439.9896v.8911c-.9145-.0186-1.7492-.6039-2.0577-1.4984l-.0465-.1518L.9514,5.0612c-.3055-1.1402.3318-2.311,1.4342-2.6844l.1402-.0425L7.6869.9514c1.0927-.2928,2.2134.2804,2.6336,1.2988l.0508.1353Z"/>
</svg>