<svg width="16" height="16" xmlns="http://www.w3.org/2000/svg" fill="context-fill" fill-opacity="context-fill-opacity">
  <path d="M.8561,1.1516c-.1821-.1821-.4773-.1821-.6594,0-.182.1821-.182.4773,0,.6594l4.429,4.4289-2.6834,1.0734c-.6216.2486-.7864,1.0518-.3131,1.5251l2.4341,2.4341-3.0706,3.0706v.6594h.6594l3.0706-3.0706,2.4341,2.4341c.4734.4733,1.2765.3085,1.5252-.313l1.0733-2.6835,4.4289,4.429c.1821.182.4773.182.6595,0,.182-.1821.182-.4773,0-.6595L.8561,1.1516ZM9.038,10.6521l-1.2218,3.0545-5.5276-5.5276,3.0545-1.2218,3.6948,3.6948h0ZM10.2771,9.1396c-.0253.0127-.0503.0257-.075.0393l.6939.6939,3.0232-1.5116c1.1386-.5693,1.3849-2.0867.4847-2.9869l-3.7831-3.783c-.9-.9001-2.4175-.6539-2.9868.4847l-1.5116,3.0231.6939.6939c.0135-.0247.0266-.0497.0392-.075l1.6125-3.225c.2847-.5693,1.0434-.6924,1.4934-.2424l3.7831,3.783c.45.4501.3269,1.2088-.2424,1.4934l-3.2251,1.6125h.0001Z"/>
</svg>